<?xml version="1.0" encoding="utf-8"?>
<!-- Generator: Adobe Illustrator 21.0.2, SVG Export Plug-In . SVG Version: 6.00 Build 0)  -->
<svg version="1.1" xmlns="http://www.w3.org/2000/svg" xmlns:xlink="http://www.w3.org/1999/xlink" x="0px" y="0px"
	 viewBox="0 0 1600 1200" style="enable-background:new 0 0 1600 1200;" xml:space="preserve">
<style type="text/css">
	.st0{fill:#343434;}
	.st1{fill:#F2F2EF;}
	.st2{display:none;}
	.st3{display:inline;fill:#FFFFFF;}
	.st4{fill:#FFFFFF;}
	.st5{display:inline;}
	.st6{font-family:'ATCArquette-Regular';}
	.st7{font-size:750px;}
	.st8{fill:#68B045;}
	.st9{fill:#333030;}
</style>
<g id="Bg">
	<rect x="-5" y="-5" class="st0" width="1610" height="1210"/>
</g>
<g id="Content">
	<g>
		<path class="st4" d="M742.3,715.5h-255l-55.5,135.8H368l212.2-510h67.5l214.5,510h-63.8L742.3,715.5z M719,659.2l-105-252
			l-103.5,252H719z"/>
		<path class="st4" d="M1232,622.5v228.8h-55.5v-60.8c-23.2,38.2-74.2,68.2-132,68.2c-69,0-123-43.5-123-109.5
			c0-64.5,52.5-101.2,120.8-114.8l133.5-27c-6-48.8-38.2-88.5-93-88.5c-43.5,0-83.2,24.8-105,59.2l-45-31.5
			c30.8-45.8,87-78.8,146.2-78.8C1169,468,1232,529.5,1232,622.5z M1176.5,701.2V657l-123.8,25.5c-42.8,9.8-75.8,30.8-75.8,65.2
			s33,59.2,80.2,59.2C1119.5,807,1176.5,764.2,1176.5,701.2z"/>
	</g>
</g>
<g id="Live" class="st2">
	<text transform="matrix(1 0 0 1 327.5076 842.4883)" class="st3 st6 st7">Aa</text>
</g>
</svg>
