<?xml version="1.0" encoding="utf-8"?>
<!-- Generator: Adobe Illustrator 18.0.0, SVG Export Plug-In . SVG Version: 6.00 Build 0)  -->
<!DOCTYPE svg PUBLIC "-//W3C//DTD SVG 1.1//EN" "http://www.w3.org/Graphics/SVG/1.1/DTD/svg11.dtd">
<svg version="1.1" id="Layer_1" xmlns:sketch="http://www.bohemiancoding.com/sketch/ns"
	 xmlns="http://www.w3.org/2000/svg" xmlns:xlink="http://www.w3.org/1999/xlink" x="0px" y="0px" width="820px" height="607px"
	 viewBox="0 0 820 607" enable-background="new 0 0 820 607" xml:space="preserve">
<rect fill="#FFFFFF" width="820" height="607"/>
<title>Landscape</title>
<desc>Created with Sketch.</desc>
<path id="Rectangle-1" fill="#9B9B9B" d="M729.9,216.3h-23.1V243h23.1V216.3z"/>
<path id="Rectangle-1_1_" fill="#9B9B9B" d="M444.9,216.3h-23.1V243h23.1V216.3z"/>
<path id="Rectangle-1_9_" fill="#9B9B9B" d="M729.9,292.8h-23.1v26.8h23.1V292.8z"/>
<path id="Rectangle-1_8_" fill="#9B9B9B" d="M444.9,292.8h-23.1v26.8h23.1V292.8z"/>
<path id="Rectangle-1_3_" fill="#9B9B9B" d="M729.9,369.3h-23.1V396h23.1V369.3z"/>
<path id="Rectangle-1_2_" fill="#9B9B9B" d="M444.9,369.3h-23.1V396h23.1V369.3z"/>
<rect x="421.8" y="397" fill="#9B9B9B" width="308.1" height="47.8"/>
<rect x="421.8" y="320.5" fill="#9B9B9B" width="308.1" height="47.8"/>
<rect x="421.8" y="167.5" fill="#9B9B9B" width="308.1" height="47.8"/>
<rect x="421.8" y="244" fill="#9B9B9B" width="308.1" height="47.8"/>
<g>
	<polygon fill="#4990E2" points="764,319.5 763,319.5 763,444 749.3,444 749.3,445 778.7,445 778.7,444 764,444 	"/>
	<polygon fill="#4990E2" points="763,292.8 764,292.8 764,169 778.7,169 778.7,168 749.3,168 749.3,169 763,169 	"/>
</g>
<path d="M757.9,309.2l0.9-1.5c0.5,0.5,1,0.7,1.9,0.7c1.5,0,2.3-1.3,2.3-2.6c0-0.1,0-0.1,0-0.2c-0.4,0.6-1.4,1.2-2.4,1.2
	c-1.7,0-3.2-1.1-3.2-3c0-1.8,1.5-3.2,3.6-3.2c2.8,0,4,2.2,4,4.8c0,2.8-1.6,4.8-4.3,4.8C759.5,310.2,758.6,309.8,757.9,309.2z
	 M763,304.2c-0.1-0.9-0.6-1.9-1.9-1.9c-1.1,0-1.7,0.7-1.7,1.4c0,1,0.9,1.4,1.7,1.4C761.9,305,762.6,304.7,763,304.2z"/>
<path d="M767.1,304.6l-0.8-0.6c0.4-0.2,1-0.8,1.1-1.3c0,0-0.2,0.1-0.3,0.1c-0.5,0-1-0.4-1-1s0.5-1.1,1.1-1.1c0.7,0,1.3,0.5,1.3,1.4
	C768.5,303,767.9,303.9,767.1,304.6z M769.9,304.6l-0.8-0.6c0.4-0.2,1-0.8,1.1-1.3c-0.1,0-0.2,0.1-0.3,0.1c-0.5,0-1-0.4-1-1
	s0.5-1.1,1.1-1.1c0.7,0,1.2,0.5,1.2,1.4C771.4,303,770.8,303.9,769.9,304.6z"/>
<rect id="Rectangle-1_6_" x="46" y="191.6" fill="#9B9B9B" width="23.1" height="46.8"/>
<rect id="Rectangle-1_7_" x="331" y="191.6" fill="#9B9B9B" width="23.1" height="46.8"/>
<polygon fill="#D8D8D8" points="319.4,194.5 80.7,194.5 80.7,234.5 93.8,234.5 96.8,238.4 304.8,238.4 307.9,234.5 319.4,234.5 "/>
<rect x="46" y="167.5" fill="#9B9B9B" width="308.1" height="23.1"/>
<g>
	<polygon fill="#4990E2" points="353.5,258 353.5,272.2 220.1,272.2 220.1,273.2 353.5,273.2 353.5,287.4 354.5,287.4 354.5,258 	
		"/>
	<polygon fill="#4990E2" points="181.5,272.2 46.5,272.2 46.5,258 45.5,258 45.5,287.4 46.5,287.4 46.5,273.2 181.5,273.2 	"/>
</g>
<g enable-background="new    ">
	<path d="M193.5,277.3v-6.8l-1.6,1.6l-1.1-1.2l2.9-3h1.7v9.3h-1.9V277.3z"/>
	<path d="M196.9,272.7c0-2.4,1.2-4.8,3.9-4.8s3.9,2.4,3.9,4.8s-1.2,4.8-3.9,4.8C198.1,277.5,196.9,275.1,196.9,272.7z M202.6,272.7
		c0-1.7-0.5-3.1-1.8-3.1s-1.8,1.3-1.8,3.1c0,1.7,0.5,3.1,1.8,3.1C202.1,275.7,202.6,274.4,202.6,272.7z"/>
	<path d="M206.6,271.9l-0.8-0.6c0.4-0.2,1-0.8,1.1-1.3c0,0-0.2,0.1-0.3,0.1c-0.5,0-1-0.4-1-1s0.5-1.1,1.1-1.1c0.7,0,1.3,0.5,1.3,1.4
		C208.1,270.3,207.5,271.3,206.6,271.9z M209.5,271.9l-0.8-0.6c0.4-0.2,1-0.8,1.1-1.3c-0.1,0-0.2,0.1-0.3,0.1c-0.5,0-1-0.4-1-1
		s0.5-1.1,1.1-1.1c0.7,0,1.2,0.5,1.2,1.4C210.9,270.3,210.3,271.3,209.5,271.9z"/>
</g>
<g enable-background="new    ">
	<path d="M47.2,145v-12h8.5v2.3h-5.9v2.5h5.8v2.2h-5.8v5H47.2z"/>
	<path d="M57.4,145v-8.7h2.3v1.2c0.6-0.8,1.7-1.4,2.8-1.4v2.2c-0.2,0-0.4-0.1-0.6-0.1c-0.8,0-1.8,0.4-2.1,1v5.7h-2.4V145z"/>
	<path d="M63.3,140.6c0-2.5,1.7-4.6,4.6-4.6s4.6,2.1,4.6,4.6s-1.7,4.6-4.6,4.6C65.1,145.2,63.3,143.1,63.3,140.6z M70.2,140.6
		c0-1.4-0.8-2.5-2.2-2.5s-2.2,1.2-2.2,2.5c0,1.4,0.8,2.5,2.2,2.5S70.2,142,70.2,140.6z"/>
	<path d="M80.1,145v-5.3c0-1.2-0.6-1.6-1.6-1.6c-0.9,0-1.6,0.5-2,1v5.9h-2.3v-8.7h2.3v1.1c0.6-0.7,1.6-1.4,3-1.4
		c1.9,0,2.8,1.1,2.8,2.8v6.1L80.1,145L80.1,145z"/>
	<path d="M85.1,142.8v-4.5h-1.4v-2h1.4v-2.4h2.3v2.4h1.8v2h-1.8v3.9c0,0.5,0.3,1,0.8,1c0.3,0,0.7-0.1,0.8-0.3l0.5,1.7
		c-0.3,0.3-1,0.6-1.9,0.6C86,145.2,85.1,144.4,85.1,142.8z"/>
</g>
<g enable-background="new    ">
	<path d="M424,145v-9.8h-3.5V133h9.6v2.3h-3.5v9.8H424V145z"/>
	<path d="M429.3,140.6c0-2.5,1.7-4.6,4.6-4.6s4.6,2.1,4.6,4.6s-1.7,4.6-4.6,4.6C431,145.2,429.3,143.1,429.3,140.6z M436.1,140.6
		c0-1.4-0.8-2.5-2.2-2.5c-1.4,0-2.2,1.2-2.2,2.5c0,1.4,0.8,2.5,2.2,2.5C435.3,143.2,436.1,142,436.1,140.6z"/>
	<path d="M442.5,143.9v4.4h-2.3v-12h2.3v1.1c0.7-0.8,1.6-1.3,2.7-1.3c2.2,0,3.9,1.7,3.9,4.6c0,2.9-1.6,4.6-3.9,4.6
		C444.1,145.2,443.2,144.8,442.5,143.9z M446.6,140.6c0-1.5-0.9-2.5-2.2-2.5c-0.7,0-1.6,0.4-2,1v3.1c0.4,0.5,1.2,1,2,1
		C445.7,143.2,446.6,142.2,446.6,140.6z"/>
</g>
</svg>
